<?xml version="1.0" encoding="utf-8"?>
<!-- Generator: Adobe Illustrator 16.0.0, SVG Export Plug-In . SVG Version: 6.00 Build 0)  -->
<!DOCTYPE svg PUBLIC "-//W3C//DTD SVG 1.1//EN" "http://www.w3.org/Graphics/SVG/1.1/DTD/svg11.dtd">
<svg version="1.1" id="Layer_1" xmlns="http://www.w3.org/2000/svg" xmlns:xlink="http://www.w3.org/1999/xlink" x="0px" y="0px"
	  viewBox="0 0 55.264 16.228" enable-background="new 0 0 55.264 16.228" xml:space="preserve">
<g display="none">
	<g display="inline">
		<circle fill="#5BC5C6" cx="4.347" cy="5.995" r="2.066"/>
		<circle fill="#5BC5C6" cx="13.438" cy="5.995" r="2.066"/>
		<circle fill="#5BC5C6" cx="22.53" cy="5.995" r="2.066"/>
		<circle fill="#5BC5C6" cx="31.621" cy="5.995" r="2.066"/>
		<circle fill="#5BC5C6" cx="40.711" cy="5.995" r="2.066"/>
		<circle fill="#5BC5C6" cx="49.802" cy="5.995" r="2.066"/>
		<circle fill="#5BC5C6" cx="58.894" cy="5.995" r="2.066"/>
		<circle fill="#5BC5C6" cx="67.984" cy="5.995" r="2.066"/>
		<circle fill="#5BC5C6" cx="77.075" cy="5.995" r="2.066"/>
		<circle fill="#5BC5C6" cx="86.167" cy="5.995" r="2.066"/>
		<circle fill="#5BC5C6" cx="95.257" cy="5.995" r="2.066"/>
	</g>
	<g display="inline">
		<circle fill="#5BC5C6" cx="9.306" cy="12.606" r="2.066"/>
		<circle fill="#5BC5C6" cx="18.397" cy="12.606" r="2.066"/>
		<circle fill="#5BC5C6" cx="27.488" cy="12.606" r="2.066"/>
		<circle fill="#5BC5C6" cx="36.579" cy="12.606" r="2.066"/>
		<circle fill="#5BC5C6" cx="45.67" cy="12.606" r="2.066"/>
		<circle fill="#5BC5C6" cx="54.761" cy="12.606" r="2.066"/>
		<circle fill="#5BC5C6" cx="63.852" cy="12.606" r="2.066"/>
		<circle fill="#5BC5C6" cx="72.943" cy="12.606" r="2.066"/>
		<circle fill="#5BC5C6" cx="82.034" cy="12.606" r="2.066"/>
		<circle fill="#5BC5C6" cx="91.125" cy="12.606" r="2.066"/>
		<circle fill="#5BC5C6" cx="100.216" cy="12.606" r="2.066"/>
	</g>
	<g display="inline">
		<circle fill="#5BC5C6" cx="4.347" cy="19.218" r="2.066"/>
		<circle fill="#5BC5C6" cx="13.438" cy="19.218" r="2.066"/>
		<circle fill="#5BC5C6" cx="22.53" cy="19.218" r="2.066"/>
		<circle fill="#5BC5C6" cx="31.621" cy="19.218" r="2.066"/>
		<circle fill="#5BC5C6" cx="40.711" cy="19.218" r="2.066"/>
		<circle fill="#5BC5C6" cx="49.802" cy="19.218" r="2.066"/>
		<circle fill="#5BC5C6" cx="58.894" cy="19.218" r="2.066"/>
		<circle fill="#5BC5C6" cx="67.984" cy="19.218" r="2.066"/>
		<circle fill="#5BC5C6" cx="77.075" cy="19.218" r="2.066"/>
		<circle fill="#5BC5C6" cx="86.167" cy="19.218" r="2.066"/>
		<circle fill="#5BC5C6" cx="95.257" cy="19.218" r="2.066"/>
	</g>
	<g display="inline">
		<circle fill="#5BC5C6" cx="9.306" cy="25.829" r="2.066"/>
		<circle fill="#5BC5C6" cx="18.397" cy="25.829" r="2.066"/>
		<circle fill="#5BC5C6" cx="27.488" cy="25.829" r="2.066"/>
		<circle fill="#5BC5C6" cx="36.579" cy="25.829" r="2.066"/>
		<circle fill="#5BC5C6" cx="45.67" cy="25.829" r="2.066"/>
		<circle fill="#5BC5C6" cx="54.761" cy="25.829" r="2.066"/>
		<circle fill="#5BC5C6" cx="63.852" cy="25.829" r="2.066"/>
		<circle fill="#5BC5C6" cx="72.943" cy="25.829" r="2.066"/>
		<circle fill="#5BC5C6" cx="82.034" cy="25.829" r="2.066"/>
		<circle fill="#5BC5C6" cx="91.125" cy="25.829" r="2.066"/>
		<circle fill="#5BC5C6" cx="100.216" cy="25.829" r="2.066"/>
	</g>
</g>
<g>
	<polyline fill="none" stroke="#5BC5C6" stroke-width="3" stroke-miterlimit="10" points="-20.509,4.5 -10.909,10.5 -1.311,4.5 
		8.288,10.5 17.884,4.5 27.48,10.5 37.079,4.5 46.681,10.5 56.28,4.5 65.886,10.5 75.491,4.5 	"/>
	<polyline display="none" fill="none" stroke="#EE1622" stroke-width="3" stroke-miterlimit="10" points="-21.509,13.5 
		-11.909,19.5 -2.311,13.5 7.288,19.5 16.884,13.5 26.48,19.5 36.079,13.5 45.681,19.5 55.28,13.5 64.886,19.5 74.491,13.5 	"/>
	<polyline display="none" fill="none" stroke="#EE1622" stroke-width="3" stroke-miterlimit="10" points="-21.509,22.5 
		-11.909,28.5 -2.311,22.5 7.288,28.5 16.884,22.5 26.48,28.5 36.079,22.5 45.681,28.5 55.28,22.5 64.886,28.5 74.491,22.5 	"/>
</g>
</svg>
