<?xml version="1.0" encoding="utf-8"?>
<!-- Generator: Adobe Illustrator 16.0.0, SVG Export Plug-In . SVG Version: 6.00 Build 0)  -->
<!DOCTYPE svg PUBLIC "-//W3C//DTD SVG 1.1//EN" "http://www.w3.org/Graphics/SVG/1.1/DTD/svg11.dtd">
<svg version="1.1" id="Logo" xmlns="http://www.w3.org/2000/svg" xmlns:xlink="http://www.w3.org/1999/xlink" x="0px" y="0px"
	 width="1572px" height="1054.139px" viewBox="0 -23.728 1572 1054.139" enable-background="new 0 -23.728 1572 1054.139"
	 xml:space="preserve">
<defs>
	<filter id="Adobe_OpacityMaskFilter" filterUnits="userSpaceOnUse" x="34.272" y="-23.728" width="2170.867" height="1765.727">
		<feColorMatrix  type="matrix" values="1 0 0 0 0  0 1 0 0 0  0 0 1 0 0  0 0 0 1 0"/>
	</filter>
</defs>
<mask maskUnits="userSpaceOnUse" x="34.272" y="-23.728" width="2170.867" height="1765.727" id="SVGID_1_">
	<g filter="url(#Adobe_OpacityMaskFilter)">
		<linearGradient id="SVGID_2_" gradientUnits="userSpaceOnUse" x1="-1.9512" y1="1362.7329" x2="2097.7554" y2="150.4668">
			<stop  offset="0" style="stop-color:#FFFFFF"/>
			<stop  offset="0.5547" style="stop-color:#000000"/>
		</linearGradient>
		<path fill="url(#SVGID_2_)" d="M1636.359,1070.063c-44.824,47.781-91.101,95.32-138.949,141.988
			c-96.896,92.562-200.896,181.391-314.471,261.574c-113.242,80.191-237.455,151.252-373.013,202.684
			c-34.386,12.439-68.312,23.445-104.812,32.924l-27.404,7.148l-25.349,5.379l-12.619,2.66l-7.821,1.588l-6.75,1.172l-27.007,4.562
			c-72.146,11.477-147.723,14.74-222.299,2.4c-74.322-12.566-145.703-45.076-197.191-92.678
			c-51.354-47.754-85.017-105.383-105.777-164.094c-42.098-117.938-44.46-238.844-35.162-355.531
			c10.674-117.418,35.792-230.779,83.649-343.082c46.491-108.92,106.925-212.115,182.482-304.198
			C454.23,289.331,661.105,155.276,870.584,76.719C1080.182-3.39,1293.055-32.758,1477.01-21.367
			c184.688,10.316,337.787,60.807,447.115,118.682c109.871,58.692,179.041,121.355,221.059,165.946
			c20.726,22.39,36.191,41.068,45.146,52.873c9.107,12.268,13.809,18.595,13.809,18.595l-21.01,17.177
			c0,0-7.008-4.444-20.586-13.062c-13.604-9.145-32.668-20.833-59.465-35.651c-25.982-15.25-58.916-32.77-99.02-50.118
			c-39.506-18.009-85.945-36.447-139.658-51.588c-106.65-31.255-241.242-52.695-395.203-44.413
			c-153.555,7.426-325.951,44.486-498.189,117.232c-171.551,73.792-343.378,179.05-499.855,317.718
			c-77.728,69.482-152.125,148.621-210.753,238.859c-26.902,43.291-50.034,92.84-68.738,143.141
			c-18.646,50.59-34.776,102.988-44.691,156.596c-20.604,106.678-23.436,219.613,9.646,322.984
			c17.512,50.967,44.262,99.34,85.083,135.686c40.309,36.615,93.618,60.039,152.96,68.443
			c118.984,16.066,254.914-17.541,367.504-71.277c115.826-54.668,218.927-131.348,312.399-215.646
			c93.736-84.414,177.945-177.41,257.113-273.227"/>
	</g>
</mask>
<path opacity="0.1" mask="url(#SVGID_1_)" fill="#FFFFFF" d="M1637.359,1070.063c-44.824,47.781-91.101,95.32-138.949,141.988
	c-96.896,92.562-200.896,181.391-314.471,261.574c-113.242,80.191-237.455,151.252-373.013,202.684
	c-34.386,12.439-68.312,23.445-104.812,32.924l-27.404,7.148l-25.349,5.379l-12.619,2.66l-7.821,1.588l-6.75,1.172l-27.007,4.562
	c-72.146,11.477-147.723,14.74-222.299,2.4c-74.322-12.566-145.703-45.076-197.191-92.678
	c-51.354-47.754-85.017-105.383-105.777-164.094c-42.098-117.938-44.46-238.844-35.162-355.531
	c10.674-117.418,35.792-230.779,83.649-343.082c46.491-108.92,106.925-212.115,182.482-304.198
	C455.23,289.331,662.105,155.276,871.584,76.719C1081.182-3.39,1294.055-32.758,1478.01-21.367
	c184.688,10.316,337.787,60.807,447.115,118.682c109.871,58.692,179.041,121.355,221.059,165.946
	c20.726,22.39,36.191,41.068,45.146,52.873c9.107,12.268,13.809,18.595,13.809,18.595l-21.01,17.177c0,0-7.008-4.444-20.586-13.062
	c-13.604-9.145-32.668-20.833-59.465-35.651c-25.982-15.25-58.916-32.77-99.02-50.118c-39.506-18.009-85.945-36.447-139.658-51.588
	c-106.65-31.255-241.242-52.695-395.203-44.413c-153.555,7.426-325.951,44.486-498.189,117.232
	c-171.551,73.792-343.378,179.05-499.855,317.718c-77.728,69.482-152.125,148.621-210.753,238.859
	c-26.902,43.291-50.034,92.84-68.738,143.141c-18.646,50.59-34.776,102.988-44.691,156.596
	c-20.604,106.678-23.436,219.613,9.646,322.984c17.512,50.967,44.262,99.34,85.083,135.686
	c40.309,36.615,93.618,60.039,152.96,68.443c118.984,16.066,254.914-17.541,367.504-71.277
	c115.826-54.668,218.927-131.348,312.399-215.646c93.736-84.414,177.945-177.41,257.113-273.227"/>
<defs>
	<filter id="Adobe_OpacityMaskFilter_1_" filterUnits="userSpaceOnUse">
		<feColorMatrix  type="matrix" values="1 0 0 0 0  0 1 0 0 0  0 0 1 0 0  0 0 0 1 0"/>
	</filter>
</defs>
<mask maskUnits="userSpaceOnUse" id="Layer_2_1_">
	<g filter="url(#Adobe_OpacityMaskFilter_1_)">
	</g>
</mask>
<g id="Layer_2" display="none" mask="url(#Layer_2_1_)">
</g>
<rect x="7.804" y="1030.723" display="none" fill="#61C8C8" width="313.821" height="132.037"/>
</svg>
